<svg width="20" height="14" viewBox="0 0 20 14" fill="none" xmlns="http://www.w3.org/2000/svg">
<path d="M19.5368 5.69474L14.2947 0.473684C13.6632 -0.157895 12.6526 -0.157895 12.0421 0.473684C11.4105 1.10526 11.4105 2.11579 12.0421 2.72632L14.5474 5.23158H1.6C0.71579 5.23158 0 5.94737 0 6.83158C0 7.71579 0.71579 8.43158 1.6 8.43158H14.5474L12.0421 10.9368C11.4105 11.5684 11.4105 12.5789 12.0421 13.1895C12.3579 13.5053 12.7579 13.6526 13.1789 13.6526C13.5789 13.6526 14 13.5053 14.3158 13.1895L19.5368 7.96842C19.8316 7.67368 20 7.25263 20 6.83158C20 6.41053 19.8316 6.01053 19.5368 5.69474Z" fill="white"/>
</svg>
